<svg width="25" height="25" viewBox="0 0 28 28" fill="none" xmlns="http://www.w3.org/2000/svg">
<path d="M26.0105 24.2996C26.6892 24.9807 26.6892 26.085 26.0105 26.7661V26.7661C25.3317 27.4472 24.2312 27.4472 23.5524 26.7661L1.3533 4.49051C0.674523 3.8094 0.674523 2.7051 1.3533 2.02398V2.02398C2.03208 1.34287 3.13259 1.34287 3.81136 2.02398L26.0105 24.2996Z" fill="white"/>
<path d="M3.75637 26.7066C3.07409 27.3842 1.96979 27.3823 1.28984 26.7023V26.7023C0.609898 26.0224 0.611791 24.9219 1.29407 24.2443L23.6078 2.0835C24.2901 1.40589 25.3944 1.40779 26.0744 2.08774V2.08774C26.7543 2.76768 26.7524 3.8682 26.0701 4.5458L3.75637 26.7066Z" fill="white"/>
</svg>
