<svg width="27" height="27" viewBox="0 0 31 31" fill="none" xmlns="http://www.w3.org/2000/svg">
<path d="M22.7195 3.02404C24.1664 1.57216 26.5123 1.57216 27.9592 3.02404V3.02404C29.4061 4.47591 29.4061 6.82987 27.9592 8.28174L8.54166 27.7662C7.09477 29.218 4.7489 29.218 3.30201 27.7662V27.7662C1.85512 26.3143 1.85512 23.9603 3.30201 22.5085L22.7195 3.02404Z" fill="white"/>
<path d="M28.0623 22.5083C29.5092 23.9602 29.5092 26.3141 28.0623 27.766V27.766C26.6154 29.2179 24.2695 29.2179 22.8227 27.766L3.40513 8.28158C1.95824 6.8297 1.95824 4.47575 3.40513 3.02387V3.02387C4.85202 1.572 7.19789 1.572 8.64478 3.02388L28.0623 22.5083Z" fill="white"/>
</svg>
