<svg width="31" height="25" viewBox="0 0 31 25" fill="none" xmlns="http://www.w3.org/2000/svg">
<path d="M0.666016 1.96243C0.666016 0.995935 1.44952 0.212433 2.41602 0.212433H28.916C29.8825 0.212433 30.666 0.995935 30.666 1.96243V1.96243C30.666 2.92893 29.8825 3.71243 28.916 3.71243H2.41602C1.44952 3.71243 0.666016 2.92893 0.666016 1.96243V1.96243Z" fill="white"/>
<path d="M0.666016 12.5688C0.666016 11.6023 1.44952 10.8188 2.41602 10.8188H28.916C29.8825 10.8188 30.666 11.6023 30.666 12.5688V12.5688C30.666 13.5353 29.8825 14.3188 28.916 14.3188H2.41602C1.44952 14.3188 0.666016 13.5353 0.666016 12.5688V12.5688Z" fill="white"/>
<path d="M0.666016 23.1751C0.666016 22.2086 1.44952 21.4251 2.41602 21.4251H28.916C29.8825 21.4251 30.666 22.2086 30.666 23.1751V23.1751C30.666 24.1416 29.8825 24.9251 28.916 24.9251H2.41602C1.44952 24.9251 0.666016 24.1416 0.666016 23.1751V23.1751Z" fill="white"/>
</svg>
