<svg width="27" height="27" viewBox="0 0 31 29" fill="none" xmlns="http://www.w3.org/2000/svg">
<path d="M0.666016 3.69739C0.666016 1.7727 2.22628 0.212433 4.15097 0.212433H27.1811C29.1057 0.212433 30.666 1.7727 30.666 3.69739V3.69739C30.666 5.62208 29.1057 7.18235 27.1811 7.18235H4.15097C2.22628 7.18235 0.666016 5.62208 0.666016 3.69739V3.69739Z" fill="white"/>
<path d="M0.666016 14.3037C0.666016 12.379 2.22628 10.8188 4.15097 10.8188H27.1811C29.1057 10.8188 30.666 12.379 30.666 14.3037V14.3037C30.666 16.2284 29.1057 17.7887 27.1811 17.7887H4.15097C2.22628 17.7887 0.666016 16.2284 0.666016 14.3037V14.3037Z" fill="white"/>
<path d="M0.666016 24.9101C0.666016 22.9854 2.22628 21.4251 4.15097 21.4251H27.1811C29.1057 21.4251 30.666 22.9854 30.666 24.9101V24.9101C30.666 26.8348 29.1057 28.395 27.1811 28.395H4.15097C2.22628 28.395 0.666016 26.8348 0.666016 24.9101V24.9101Z" fill="white"/>
</svg>
